<?xml version="1.0" standalone="no"?>
<!DOCTYPE svg PUBLIC "-//W3C//DTD SVG 20010904//EN"
 "http://www.w3.org/TR/2001/REC-SVG-20010904/DTD/svg10.dtd">
<svg version="1.0" xmlns="http://www.w3.org/2000/svg"
 width="512.000000pt" height="512.000000pt" viewBox="0 0 512.000000 512.000000"
 preserveAspectRatio="xMidYMid meet">
<metadata>
Created by potrace 1.11, written by Peter Selinger 2001-2013
</metadata>
<g transform="translate(0.000000,512.000000) scale(0.100000,-0.100000)"
fill="#000000" stroke="none">
<path d="M575 4306 c-40 -18 -73 -56 -85 -97 -6 -21 -10 -500 -10 -1281 l0
-1248 -160 0 -160 0 0 -293 c0 -335 5 -369 67 -431 78 -78 -154 -71 2333 -71
2148 0 2226 1 2262 19 47 23 91 68 115 115 16 32 18 72 21 349 l3 312 -160 0
-161 0 -2 1269 -3 1270 -21 28 c-11 15 -36 38 -54 50 l-33 23 -1961 0 c-1614
-1 -1966 -3 -1991 -14z m3905 -1386 l0 -1240 -1920 0 -1920 0 0 1240 0 1240
1920 0 1920 0 0 -1240z m-2743 -1557 l39 -158 784 0 784 0 39 158 39 157 690
0 689 0 -3 -221 -3 -220 -25 -19 c-24 -19 -71 -20 -2211 -20 -2138 0 -2187 0
-2210 19 -24 19 -24 22 -27 240 l-3 221 689 0 690 0 39 -157z m1501 77 l-20
-80 -658 0 -658 0 -20 80 -20 80 698 0 698 0 -20 -80z"/>
<path d="M720 3920 l0 -160 80 0 80 0 0 80 0 80 40 0 40 0 0 80 0 80 -120 0
-120 0 0 -160z"/>
<path d="M960 2880 l0 -880 1600 0 1600 0 0 80 0 80 -80 0 -80 0 0 720 0 720
-320 0 -320 0 0 -720 0 -720 -160 0 -160 0 0 480 0 480 -320 0 -320 0 0 -480
0 -480 -160 0 -160 0 0 240 0 240 -320 0 -320 0 0 -240 0 -240 -160 0 -160 0
0 800 0 800 -80 0 -80 0 0 -880z m2880 -80 l0 -640 -160 0 -160 0 0 640 0 640
160 0 160 0 0 -640z m-960 -240 l0 -400 -160 0 -160 0 0 400 0 400 160 0 160
0 0 -400z m-960 -240 l0 -160 -160 0 -160 0 0 160 0 160 160 0 160 0 0 -160z"/>
<path d="M4240 2000 l0 -80 -40 0 -40 0 0 -80 0 -80 120 0 120 0 0 160 0 160
-80 0 -80 0 0 -80z"/>
</g>
</svg>
